PathFileType	4	(X/Y/Z)	 s10c0303.trc
DataRate	CameraRate	NumFrames	NumMarkers	Units	OrigDataRate	OrigDataStartFrame	OrigNumFrames
200	200	4	50	mm	200	1251	2000
Frame#	Time	racr			lacr			c7			jug			rlel			rdr			llel			ldr			s2			lic			ric			lasi			rasi			rpsi			lpsi			rgt			lgt			rth1			rth2			rth3			rth4			rlfc			rmfc			rsh1			rsh2			rsh3			rsh4			rlmal			rmmal			rcal			rtoe			rmt5			lth1			lth2			lth4			lth3			llfc			lmfc			llmal			lmmal			lcal			lmt5			lsh1			lsh2			lsh3			lsh4			ltoe			SBIKE			LBIKE			RBIKE			
		X1	Y1	Z1	X2	Y2	Z2	X3	Y3	Z3	X4	Y4	Z4	X5	Y5	Z5	X6	Y6	Z6	X7	Y7	Z7	X8	Y8	Z8	X9	Y9	Z9	X10	Y10	Z10	X11	Y11	Z11	X12	Y12	Z12	X13	Y13	Z13	X14	Y14	Z14	X15	Y15	Z15	X16	Y16	Z16	X17	Y17	Z17	X18	Y18	Z18	X19	Y19	Z19	X20	Y20	Z20	X21	Y21	Z21	X22	Y22	Z22	X23	Y23	Z23	X24	Y24	Z24	X25	Y25	Z25	X26	Y26	Z26	X27	Y27	Z27	X28	Y28	Z28	X29	Y29	Z29	X30	Y30	Z30	X31	Y31	Z31	X32	Y32	Z32	X33	Y33	Z33	X34	Y34	Z34	X35	Y35	Z35	X36	Y36	Z36	X37	Y37	Z37	X38	Y38	Z38	X39	Y39	Z39	X40	Y40	Z40	X41	Y41	Z41	X42	Y42	Z42	X43	Y43	Z43	X44	Y44	Z44	X45	Y45	Z45	X46	Y46	Z46	X47	Y47	Z47	X48	Y48	Z48	X49	Y49	Z49	X50	Y50	Z50	
1251	6.2550	696.125714	1291.024011	-15.122991	663.916636	1315.312955	-312.093060	663.334811	1328.389053	-156.838442	641.368742	1182.779129	-158.431599	575.611194	1055.127442	96.950799	642.713541	874.592525	-10.558703	587.777717	1075.524547	-449.197720	667.481013	879.796553	-368.096431	126.215805	1165.746554	-210.525197	306.684026	1166.244942	-333.057438	276.286819	1139.041825	-49.880672	327.108373	1072.358294	-316.716496	268.333634	1064.878260	-62.948099	164.598705	1213.884883	-141.418344	190.858143	1223.589772	-248.617714	149.006649	1057.029395	-22.237207	214.420186	1048.040211	-399.650374	229.033994	929.546093	-0.044990	309.036359	889.773507	-2.502773	354.777910	818.133149	-6.957946	332.814715	918.738412	-3.873311	447.503662	747.565106	-18.714616	452.710719	740.963667	-137.592434	376.808390	655.566350	4.181531	353.175576	571.196958	-12.012010	291.935871	510.566115	-19.038906	379.318354	560.604115	-38.340234	236.997081	416.037935	-40.324781	262.490519	433.045653	-119.619067	179.316468	399.524295	-88.573922	418.377301	355.224685	-81.082986	333.357594	335.205306	-20.741675	270.379576	921.748322	-404.862770	326.091445	858.328036	-384.633975	355.400498	876.155066	-371.056101	344.059664	771.969315	-376.197783	373.269811	662.816865	-358.477278	363.991415	648.903402	-243.390293	63.303890	437.147061	-388.913834	70.156636	423.107428	-312.654746	14.732814	467.178879	-342.217381	38.712723	289.231719	-395.664346	264.621535	606.227015	-404.037397	216.864823	533.181662	-392.929817	137.119450	493.687771	-397.232641	236.057803	513.573801	-366.666396	93.235151	233.920460	-339.113283	-203.850266	831.297481	-223.961588	-78.162508	82.067393	-423.668046	-102.627449	80.693420	-24.402435	
1252	6.2600	694.224798	1293.153525	-15.716081	665.022187	1316.662693	-313.220330	663.281895	1329.661875	-157.954563	641.637394	1184.662671	-161.010279	574.996460	1056.228610	94.549084	642.852585	874.670429	-10.634983	589.129741	1076.239852	-449.820535	667.607761	880.041033	-368.328007	126.220437	1166.572011	-206.957367	304.419510	1167.292290	-332.014912	278.935848	1137.798462	-49.406406	325.473842	1072.864430	-315.958602	270.096099	1063.720104	-61.365570	165.492481	1213.775478	-138.050156	190.122085	1224.208444	-245.493281	149.984450	1056.199277	-19.803950	213.438368	1049.288621	-397.696026	228.438295	926.840305	1.368003	306.945430	884.137949	-2.254530	350.363676	811.004309	-8.073286	331.851521	912.273814	-3.684367	440.032481	735.587847	-21.281384	444.452564	729.254797	-138.416261	371.532435	642.190406	2.835443	349.045484	557.704617	-14.202325	288.719005	496.090268	-20.531029	374.699338	548.065775	-41.395254	235.201274	402.648299	-40.657303	259.900271	419.779471	-120.336801	177.703349	384.532562	-89.708877	417.499314	345.781123	-80.893854	332.729222	323.868199	-20.834503	271.354215	923.401428	-402.926694	329.205516	861.652393	-383.881903	357.074615	879.368079	-369.256144	348.681842	775.362190	-374.509506	381.118223	666.816343	-356.149368	372.299836	654.352782	-240.250307	68.484391	446.232665	-388.233428	74.352254	433.596028	-308.151868	20.959555	477.789035	-341.682188	38.910579	299.138190	-395.489660	273.551845	610.872974	-401.923466	224.013896	538.921394	-390.979470	143.465425	501.066001	-396.205593	242.386512	519.250440	-364.292195	91.498062	241.836373	-339.121286	-203.804045	831.268461	-223.924419	-78.156970	82.058875	-423.695810	-102.635809	80.680143	-24.412212	
1253	6.2650	692.193378	1295.044534	-15.906685	666.195823	1318.111001	-315.114928	663.078087	1331.051417	-158.929708	641.772558	1186.651419	-163.720538	574.373583	1057.412134	92.069148	642.954595	874.800888	-10.641196	590.424950	1076.945246	-450.583185	667.874249	880.206002	-368.122681	126.215710	1167.176450	-203.587119	302.238977	1167.865656	-330.753259	281.974982	1136.285840	-48.878168	323.936317	1073.255934	-314.963570	271.717131	1062.320038	-60.054514	166.041337	1213.564571	-134.414991	189.644440	1224.871094	-242.815239	151.178420	1054.901627	-17.574194	212.180957	1050.149745	-395.240143	228.272361	923.730731	2.907868	305.046737	878.245133	-2.072991	345.770717	803.646510	-9.131043	330.922767	905.738426	-3.536427	432.980932	723.517277	-23.390161	435.772595	717.657313	-139.588457	366.059600	628.775760	1.234699	344.631620	544.343067	-16.194349	285.252809	481.581292	-22.014575	369.576605	535.251702	-44.455670	233.068921	389.546850	-41.109412	257.474544	406.931100	-121.241283	175.639806	370.507772	-90.009448	416.019550	335.429761	-81.106421	331.616867	312.500951	-20.882720	272.058201	924.923863	-400.946844	331.483195	864.539513	-382.477689	359.206598	882.864156	-368.428979	352.898889	778.708813	-372.995443	388.731884	670.979075	-353.825806	380.178888	659.565004	-236.965598	73.785491	455.234056	-387.316823	79.136432	441.982221	-307.080574	27.510264	488.090225	-340.997182	39.746833	309.188414	-395.377480	282.109793	615.327428	-399.292890	231.847747	545.588912	-390.058867	150.079272	508.148650	-395.080442	250.492541	526.351159	-363.499637	90.375162	249.950357	-339.187490	-203.816496	831.215978	-223.838276	-78.140331	82.065917	-423.685252	-102.628108	80.664510	-24.406903	
1254	6.2700	690.034446	1297.158172	-16.160354	667.621735	1319.265914	-316.280671	662.803240	1332.486436	-160.931633	642.061417	1188.627198	-167.138959	573.638117	1058.598848	89.519349	643.075182	874.814987	-10.598530	591.755008	1077.482786	-451.452005	668.087285	880.397203	-368.223141	126.135321	1167.483399	-200.404341	300.061454	1168.162388	-329.392247	284.992244	1134.772434	-48.624036	322.330346	1073.229297	-313.887578	273.375407	1060.671364	-58.737438	166.070680	1213.615782	-130.429408	188.332732	1224.560756	-239.530541	152.623383	1053.358829	-15.528175	210.843385	1050.636477	-392.721125	228.192567	920.370823	4.196812	303.214803	872.315066	-1.906413	341.481454	796.344599	-10.111761	330.062243	898.754668	-3.983151	425.192831	711.794007	-26.205404	426.688992	705.756862	-140.891662	360.199398	615.657246	-0.605282	339.552227	531.050661	-18.883255	281.131050	467.420794	-23.347738	364.873501	522.940888	-46.678405	230.548213	376.960551	-41.536883	254.710397	394.406865	-122.067343	173.305584	357.269962	-90.412447	414.362014	326.121448	-80.392087	330.000318	301.184453	-20.955669	272.431095	926.391223	-398.976122	332.885343	866.826086	-380.390369	361.004185	886.230061	-367.575998	357.137760	782.355829	-372.334059	396.122155	675.350691	-351.639992	387.019831	665.309162	-233.880482	79.546652	464.229034	-386.566483	84.160110	450.472747	-306.075752	34.391093	498.213104	-340.348790	41.134099	319.192757	-395.196918	290.735661	619.921402	-397.121398	239.276316	551.252175	-388.136927	156.881552	515.016664	-393.853375	257.031228	531.891212	-361.008541	89.987101	258.109916	-338.987139	-203.798547	831.240580	-223.858926	-78.150922	82.068793	-423.665461	-102.625865	80.651885	-24.406094	
